<?xml version="1.0" encoding="utf-8"?>
<!-- Generator: Adobe Illustrator 26.3.1, SVG Export Plug-In . SVG Version: 6.00 Build 0)  -->
<svg version="1.1" id="Capa_1" xmlns="http://www.w3.org/2000/svg" xmlns:xlink="http://www.w3.org/1999/xlink" x="0px" y="0px"
	 viewBox="0 0 36 36" style="enable-background:new 0 0 36 36;" xml:space="preserve">
<style type="text/css">
	.st0{fill-rule:evenodd;clip-rule:evenodd;fill:#FFFFFF;}
	.st1{fill:none;stroke:#FFFFFF;stroke-miterlimit:10;}
</style>
<g id="Capa_2_1_">
	<g id="Footer">
		<path class="st0" d="M18,10.2c0.5,0,0.9,0.4,0.9,0.9l0,0v15.6c0,0.5-0.4,0.9-0.9,0.9s-0.9-0.4-0.9-0.9l0,0V11.1
			C17.1,10.6,17.5,10.2,18,10.2z"/>
		<path class="st0" d="M17.4,8.7c0.3-0.3,0.9-0.3,1.2,0l0,0l5.2,5.2c0.3,0.3,0.3,0.9,0,1.2s-0.9,0.3-1.2,0L18,10.6l-4.6,4.6
			c-0.3,0.3-0.9,0.3-1.2,0s-0.3-0.9,0-1.2L17.4,8.7z"/>
		<circle class="st1" cx="18" cy="18" r="17.5"/>
	</g>
</g>
</svg>
