<svg xmlns="http://www.w3.org/2000/svg" viewBox="0 0 174.62 51"><defs><style>.cls-1,.cls-3,.cls-5{fill:#333;}.cls-2,.cls-3,.cls-5{isolation:isolate;}.cls-3,.cls-5{font-size:20px;font-family:Marcellus-Regular, Marcellus;}.cls-4{letter-spacing:-0.04em;}.cls-5{stroke:#333;stroke-miterlimit:10;stroke-width:0.5px;}.cls-6{letter-spacing:-0.01em;}</style></defs><g id="Capa_2" data-name="Capa 2"><g id="Content-2"><g id="Capa_2-2" data-name="Capa 2"><g id="Nav"><path class="cls-1" d="M27,48.29c-11.59,0-20.6-9.66-20.6-24.66,0-14.1,8-21.18,18.8-21.18,10.17,0,19.57,8.31,19.57,23.76C44.79,44.94,32.82,48.29,27,48.29Zm-1.74,2.45C40.8,50.74,51,38.83,51,24.41,51,9.4,40.16.26,25.67.26,7.9.26.3,15,.3,25.43.3,37,7.64,50.74,25.3,50.74Z"/><path class="cls-1" d="M.56,51,0,50.43,50.71,0l.56.57Z"/><g class="cls-2"><text class="cls-3" transform="translate(62.99 19.91)">AN<tspan class="cls-4" x="28.34" y="0">D</tspan><tspan x="41.82" y="0">ALUCÍA</tspan></text><text class="cls-5" transform="translate(62.99 19.91)">AN<tspan class="cls-4" x="28.34" y="0">D</tspan><tspan x="41.82" y="0">ALUCÍA</tspan></text><text class="cls-3" transform="translate(62.99 43.91)">just <tspan class="cls-6" x="36.85" y="0">f</tspan><tspan x="43.05" y="0">eel.</tspan></text></g></g></g></g></g></svg>